<?xml version="1.0" standalone="no"?>
<!DOCTYPE svg PUBLIC "-//W3C//DTD SVG 20010904//EN"
 "http://www.w3.org/TR/2001/REC-SVG-20010904/DTD/svg10.dtd">
<svg version="1.0" xmlns="http://www.w3.org/2000/svg"
 width="500.000000pt" height="500.000000pt" viewBox="0 0 500.000000 500.000000"
 preserveAspectRatio="xMidYMid meet">
<metadata>
Created by potrace 1.14, written by Peter Selinger 2001-2017
</metadata>
<g transform="translate(0.000000,500.000000) scale(0.100000,-0.100000)"
fill="#000000" stroke="none">
<path d="M2325 4994 c-258 -26 -500 -79 -691 -149 -612 -226 -1135 -712 -1405
-1305 -359 -788 -285 -1719 194 -2427 250 -370 543 -629 944 -836 249 -128
518 -214 798 -254 180 -26 516 -23 700 5 277 43 496 114 750 241 392 198 689
452 930 796 226 323 369 688 432 1102 22 149 22 517 0 666 -51 337 -148 623
-303 897 -244 432 -625 791 -1068 1009 -343 169 -671 248 -1056 255 -102 2
-203 2 -225 0z m20 -264 c-69 -8 -96 -20 -144 -64 l-34 -31 21 31 c31 46 95
74 162 73 l55 -2 -60 -7z m390 -5 c17 -9 45 -30 61 -48 l29 -32 -30 26 c-44
39 -73 51 -135 59 l-55 7 48 2 c27 0 64 -6 82 -14z m-340 -49 c19 -8 35 -17
35 -20 0 -3 -17 2 -37 10 -47 20 -105 12 -158 -23 -33 -21 -37 -22 -22 -5 44
49 118 64 182 38z m328 0 c18 -7 46 -29 62 -47 l30 -33 -37 32 c-48 40 -111
58 -155 44 -37 -11 -45 -6 -10 8 33 13 73 12 110 -4z m-653 -22 c88 -52 73
-184 -21 -184 -51 0 -93 54 -58 76 18 11 34 -13 19 -30 -10 -13 -8 -17 16 -26
23 -9 32 -8 53 8 64 47 18 152 -66 152 -71 0 -128 -57 -147 -147 -7 -29 -4
-34 31 -56 50 -32 98 -87 114 -131 18 -49 105 -89 207 -94 159 -9 248 75 228
213 -20 129 -184 165 -242 54 -21 -42 -17 -67 15 -100 33 -33 62 -37 86 -13
23 23 15 49 -15 49 -16 0 -25 6 -25 15 0 26 48 18 64 -11 37 -66 -67 -111
-124 -54 -39 38 -35 104 8 151 28 31 42 37 84 41 105 11 167 -51 167 -167 0
-77 -21 -122 -73 -157 -74 -50 -165 -56 -278 -18 -42 14 -76 24 -77 23 -1 -2
3 -46 9 -99 l10 -96 44 13 c190 56 524 61 746 11 l100 -23 1 41 c0 22 4 68 9
103 l8 62 -54 -25 c-62 -28 -147 -41 -212 -31 -58 9 -131 57 -151 100 -22 46
-21 142 2 186 53 105 215 107 258 3 30 -72 -8 -143 -77 -143 -43 0 -69 21 -69
55 0 47 60 74 68 31 3 -15 0 -18 -21 -12 -31 7 -41 -13 -21 -43 34 -48 114 -4
114 63 0 46 -40 92 -91 106 -33 9 -46 8 -82 -8 -60 -27 -80 -71 -75 -165 4
-66 6 -72 41 -102 71 -62 177 -73 293 -31 38 14 73 31 77 38 4 7 22 37 40 67
20 35 49 66 79 85 54 35 59 56 29 121 -44 97 -133 125 -197 61 -48 -48 -43
-106 12 -127 33 -12 58 2 59 33 0 14 6 23 15 23 23 0 23 -32 1 -54 -42 -42
-122 -17 -137 43 -14 58 54 136 119 136 72 0 148 -74 162 -158 l6 -37 64 3
c74 4 148 -24 219 -82 23 -18 57 -36 77 -40 46 -8 67 -30 49 -51 -7 -8 -16
-15 -21 -15 -4 0 -36 24 -71 53 -140 118 -203 142 -304 112 -47 -13 -69 -27
-109 -68 -73 -76 -94 -168 -59 -257 9 -23 14 -53 11 -69 -5 -26 -3 -29 41 -43
l48 -15 -4 62 c-5 72 17 126 68 168 28 24 86 47 119 47 42 0 100 -30 153 -78
32 -30 60 -53 62 -51 2 2 11 19 20 37 65 127 256 70 256 -76 0 -84 -90 -133
-147 -80 -42 40 -21 118 32 118 27 0 49 -24 41 -45 -7 -19 -36 -20 -36 0 0 8
5 15 12 15 9 0 9 3 1 11 -8 8 -17 8 -31 0 -50 -27 -29 -101 29 -101 44 0 66
15 79 55 32 98 -77 194 -167 148 -83 -43 -97 -141 -43 -306 l31 -99 52 7 c78
10 166 33 217 57 58 28 165 134 190 190 64 141 -39 271 -158 198 -69 -42 -90
-126 -43 -174 44 -43 137 -5 110 46 -8 15 -14 17 -22 9 -17 -17 -27 -13 -27 9
0 14 7 20 23 20 52 0 65 -64 21 -99 -54 -42 -134 -12 -147 55 -17 90 85 187
178 170 37 -7 91 -61 101 -102 10 -41 -4 -114 -33 -163 -20 -36 -22 -42 -7
-30 61 53 169 66 229 29 86 -53 69 -197 -28 -243 -50 -24 -90 -21 -126 9 -26
21 -31 33 -31 69 0 35 5 48 26 64 33 26 45 26 74 3 17 -13 21 -24 16 -40 -4
-12 -14 -22 -22 -22 -17 0 -19 27 -2 32 19 7 -1 28 -27 28 -13 0 -31 -10 -39
-22 -38 -54 2 -118 75 -118 35 0 48 6 79 38 84 84 49 193 -67 209 -89 12 -245
-103 -298 -219 -26 -57 -55 -179 -55 -232 0 -33 0 -33 92 -61 122 -37 177 -42
234 -20 87 33 112 125 51 191 -28 30 -42 37 -83 41 -47 5 -52 3 -78 -27 -21
-25 -26 -40 -21 -59 15 -63 105 -70 105 -8 0 16 -2 17 -15 7 -11 -9 -19 -10
-27 -2 -15 15 -1 32 27 32 18 0 26 -7 31 -27 6 -21 2 -31 -20 -50 -33 -28 -56
-29 -90 -2 -20 16 -26 29 -26 59 0 84 87 125 168 80 45 -25 82 -83 82 -127 0
-40 -37 -93 -82 -118 l-37 -21 45 -44 c59 -57 84 -107 84 -167 0 -62 -25 -110
-77 -149 -47 -36 -122 -52 -166 -35 -32 12 -32 10 -9 -50 14 -39 20 -44 33
-36 13 8 32 5 74 -11 68 -26 85 -27 154 -6 63 18 136 81 162 139 21 46 24 126
7 176 -14 42 -57 105 -114 170 -46 52 -54 76 -29 85 22 9 42 -12 48 -51 3 -19
21 -54 40 -78 64 -79 82 -124 82 -209 -1 -76 0 -78 24 -78 35 0 107 -37 131
-67 48 -61 43 -142 -11 -187 -81 -68 -188 12 -139 103 15 28 60 29 60 1 0 -21
-15 -27 -25 -10 -11 17 -35 -9 -35 -36 0 -62 85 -86 133 -38 33 32 41 57 33
99 -11 55 -105 125 -171 125 -5 0 -23 -20 -38 -44 -30 -48 -79 -89 -131 -111
-25 -11 -38 -26 -55 -65 -51 -119 -50 -223 5 -304 85 -125 311 -61 292 82 -10
74 -70 122 -132 106 -68 -17 -76 -135 -9 -122 13 2 17 11 15 32 -3 20 0 27 10
24 7 -3 13 -18 13 -34 0 -22 -6 -31 -27 -38 -23 -8 -32 -6 -53 14 -34 32 -33
74 4 111 61 60 166 27 192 -61 37 -123 -78 -223 -220 -191 -138 31 -181 212
-97 411 5 13 -6 14 -94 6 -80 -8 -100 -12 -95 -23 2 -8 15 -60 27 -116 18 -85
22 -136 22 -302 1 -197 -8 -289 -40 -399 -18 -64 -20 -61 24 -62 20 0 66 -4
101 -9 61 -8 64 -7 57 11 -57 137 -62 229 -18 314 37 74 67 93 151 98 87 5
141 -20 171 -78 32 -63 23 -119 -27 -172 -65 -68 -183 -29 -183 59 0 49 66 83
98 51 18 -18 15 -58 -4 -58 -12 0 -15 6 -10 25 4 14 4 25 2 25 -2 0 -11 3 -19
6 -21 8 -47 -23 -47 -56 0 -60 90 -92 142 -50 57 45 63 140 11 191 -51 52
-178 56 -229 8 -60 -56 -85 -151 -64 -240 23 -96 47 -137 93 -160 50 -25 113
-83 134 -123 13 -26 18 -28 55 -23 126 17 191 151 107 221 -37 31 -68 33 -103
5 -40 -32 -33 -94 10 -83 18 5 24 2 24 -10 0 -24 -28 -31 -49 -12 -44 40 -21
128 37 141 65 14 142 -50 142 -118 0 -72 -74 -147 -159 -162 l-37 -6 4 -64 c4
-52 0 -73 -22 -120 -14 -31 -40 -75 -58 -98 -18 -22 -37 -59 -43 -81 -12 -46
-40 -70 -55 -46 -14 22 -15 21 54 105 105 125 129 195 102 290 -41 139 -197
220 -326 169 -23 -9 -53 -14 -69 -11 -26 5 -29 3 -43 -43 l-16 -48 53 5 c123
13 215 -64 218 -181 1 -65 -26 -117 -88 -175 -26 -23 -45 -44 -43 -45 2 -1 20
-9 41 -19 133 -60 78 -257 -71 -257 -84 0 -133 90 -80 147 40 42 118 21 118
-32 0 -27 -24 -49 -45 -41 -19 7 -20 36 0 36 8 0 15 -6 15 -12 0 -9 3 -9 9 1
13 20 2 41 -27 52 -36 14 -72 -12 -72 -52 0 -45 16 -67 59 -80 33 -10 44 -9
77 7 51 26 79 66 79 114 0 76 -94 137 -191 124 -21 -3 -81 -19 -133 -36 l-93
-30 7 -55 c9 -77 32 -160 57 -213 28 -58 134 -165 190 -190 107 -49 218 -3
218 90 0 66 -53 125 -123 137 -31 5 -41 1 -68 -26 -25 -25 -30 -37 -25 -59 10
-39 43 -65 68 -51 15 8 17 13 7 25 -14 17 -6 29 16 21 18 -7 20 -38 3 -55 -19
-19 -59 -14 -85 10 -46 43 -21 129 43 147 49 14 96 -3 137 -49 66 -72 57 -154
-23 -208 -30 -20 -43 -23 -93 -19 -37 3 -73 15 -104 32 l-46 28 20 -29 c70
-101 53 -222 -39 -267 -117 -57 -260 113 -173 207 49 53 145 25 145 -44 0 -31
-30 -56 -56 -46 -19 7 -18 36 1 36 8 0 15 -5 15 -12 0 -8 6 -6 17 4 15 16 15
19 -1 42 -23 36 -61 43 -94 19 -78 -58 -23 -186 86 -200 105 -12 158 107 99
223 -35 67 -130 157 -199 189 -60 27 -172 55 -225 55 -32 0 -32 -1 -63 -97
-53 -163 -36 -262 51 -305 66 -33 150 16 165 96 13 71 -47 131 -103 104 -49
-23 -40 -98 11 -98 16 0 18 2 7 9 -8 5 -11 16 -7 27 6 16 8 17 24 1 13 -13 14
-21 6 -35 -27 -43 -94 -9 -94 48 0 42 31 70 78 70 92 0 130 -113 65 -191 -72
-85 -183 -75 -231 21 l-19 39 -44 -45 c-57 -59 -111 -86 -169 -86 -100 0 -179
74 -188 176 -2 31 1 63 8 76 10 20 10 22 -3 17 -8 -3 -33 -11 -55 -18 -38 -11
-40 -14 -35 -43 3 -18 -2 -49 -11 -70 -62 -148 66 -327 234 -328 72 -1 126 25
225 108 80 66 101 75 111 49 9 -22 -12 -42 -52 -50 -19 -3 -56 -22 -82 -42
-81 -62 -144 -86 -217 -81 l-63 4 -6 -36 c-3 -19 -18 -56 -34 -80 -54 -85
-153 -103 -214 -38 -55 59 -26 158 47 158 56 0 103 -57 60 -74 -20 -7 -33 23
-14 34 10 7 6 12 -15 20 -82 31 -127 -68 -60 -131 37 -34 112 -34 149 1 35 33
65 92 65 129 0 23 -7 34 -28 45 -38 20 -100 90 -118 133 -27 63 -183 115 -280
93 -106 -24 -154 -78 -154 -173 0 -100 47 -157 130 -157 103 0 164 114 92 170
-44 35 -92 21 -92 -27 0 -20 4 -22 25 -17 19 5 25 2 25 -10 0 -25 -28 -31 -50
-11 -56 50 9 124 82 94 82 -34 73 -161 -15 -202 -109 -52 -217 27 -217 157 0
161 159 238 355 172 39 -14 72 -22 74 -20 3 3 0 41 -7 84 -6 44 -9 87 -6 95 7
18 9 18 -52 1 -116 -33 -193 -41 -394 -41 -198 0 -301 11 -418 44 -29 9 -31 8
-30 -17 0 -15 -3 -60 -7 -99 -4 -40 -5 -73 -2 -73 3 0 27 10 54 22 38 17 68
22 145 22 91 1 98 0 139 -29 70 -50 84 -76 84 -158 0 -57 -5 -79 -23 -108 -55
-89 -190 -92 -242 -6 -38 62 -21 132 40 157 56 23 112 -18 95 -70 -9 -28 -42
-45 -61 -30 -20 17 -6 33 22 26 20 -5 24 -3 24 17 0 73 -101 57 -124 -20 -10
-31 18 -85 53 -106 16 -9 49 -17 74 -17 78 0 127 60 127 155 0 96 -53 154
-161 176 -45 9 -67 8 -117 -5 -101 -25 -134 -46 -163 -99 -30 -55 -73 -103
-111 -123 -21 -11 -28 -22 -28 -45 0 -42 22 -89 59 -124 27 -25 41 -30 81 -30
53 0 80 18 100 64 24 58 -31 117 -86 92 -22 -10 -24 -14 -13 -27 9 -10 9 -18
1 -26 -13 -13 -32 -2 -32 19 0 51 84 72 127 31 61 -57 -5 -178 -97 -178 -66 0
-144 77 -155 154 l-7 42 -63 -4 c-53 -4 -73 0 -121 22 -32 15 -77 42 -100 61
-23 19 -46 35 -51 35 -4 0 -25 5 -46 11 -31 8 -38 14 -35 32 5 38 34 30 104
-32 38 -33 93 -72 122 -87 134 -68 297 0 346 144 20 58 20 98 0 153 -8 24 -13
58 -11 75 5 29 3 32 -35 43 -22 7 -47 15 -55 18 -13 5 -13 2 -4 -15 18 -33 13
-93 -13 -149 -31 -66 -92 -105 -164 -105 -67 1 -96 14 -162 77 l-58 56 -10
-28 c-40 -104 -152 -124 -229 -41 -50 54 -53 125 -6 172 51 51 143 21 143 -46
0 -50 -57 -87 -88 -56 -17 17 -15 45 3 52 20 7 32 -23 14 -35 -11 -7 -9 -9 7
-9 51 0 60 75 11 98 -56 27 -116 -31 -103 -101 15 -83 98 -133 165 -99 87 43
103 137 52 301 -31 101 -32 101 -64 101 -94 -1 -260 -59 -317 -112 -106 -99
-151 -190 -131 -266 22 -80 105 -115 170 -70 79 54 99 130 47 174 -33 29 -55
30 -90 3 -29 -23 -33 -41 -11 -59 10 -9 15 -9 15 -1 0 6 7 11 16 11 21 0 14
-34 -9 -38 -47 -9 -67 73 -25 102 27 19 86 20 109 3 58 -44 49 -144 -17 -196
-95 -75 -212 -25 -222 94 -5 57 7 98 40 147 l19 27 -57 -29 c-96 -51 -196 -34
-236 41 -32 61 -17 122 46 177 30 26 45 32 82 32 37 0 51 -6 75 -29 35 -36 39
-86 9 -119 -37 -39 -107 -21 -98 25 4 22 38 31 38 10 0 -9 -6 -18 -12 -20 -10
-4 -9 -8 2 -16 20 -14 24 -14 51 7 27 23 30 73 5 101 -62 69 -196 -6 -196
-110 0 -75 80 -129 162 -110 96 22 220 137 258 238 21 56 50 185 50 223 0 24
-142 71 -236 78 -78 5 -110 -6 -154 -53 -47 -50 -26 -133 43 -175 39 -24 68
-25 107 -5 69 36 40 146 -32 127 -25 -6 -43 -41 -29 -55 8 -8 11 -8 11 1 0 7
7 12 15 12 17 0 20 -25 5 -35 -21 -13 -50 6 -50 32 0 61 70 84 115 38 66 -65
-17 -173 -112 -146 -133 38 -155 205 -34 260 l40 17 -50 48 c-27 26 -56 60
-63 75 -51 98 -11 217 89 262 44 21 116 25 146 9 23 -13 23 -16 0 45 -17 44
-22 50 -45 47 -15 -2 -49 4 -77 13 -156 52 -322 -66 -323 -230 -1 -77 32 -148
109 -232 58 -65 74 -113 37 -113 -19 0 -42 37 -42 68 0 10 -19 42 -41 72 -65
85 -81 130 -77 210 l3 69 -42 6 c-49 7 -116 53 -138 94 -43 84 10 181 98 181
70 0 111 -72 71 -128 -16 -23 -48 -29 -60 -11 -10 17 13 34 29 21 11 -9 16 -7
25 14 25 53 -33 107 -91 85 -95 -36 -85 -171 17 -220 68 -34 96 -29 129 23 24
39 64 70 142 112 32 17 68 119 73 204 3 67 1 81 -25 129 -35 67 -76 91 -154
91 -67 0 -115 -27 -142 -80 -59 -115 91 -238 167 -137 34 46 0 102 -51 83 -13
-5 -14 -9 -5 -18 18 -18 15 -28 -8 -28 -25 0 -26 26 -3 52 37 41 93 9 93 -53
0 -69 -82 -111 -150 -76 -65 33 -91 138 -50 205 36 59 151 90 227 61 119 -45
158 -230 81 -383 l-20 -39 79 8 c43 4 89 7 101 7 21 0 23 4 18 26 -54 249 -64
495 -27 703 11 63 24 127 30 141 9 25 8 26 -22 26 -18 -1 -65 2 -105 7 l-74 8
20 -39 c77 -153 38 -338 -81 -383 -76 -29 -191 2 -227 61 -41 67 -15 172 50
205 67 34 150 -7 150 -75 0 -62 -51 -93 -92 -55 -25 22 -24 53 2 53 21 0 27
-15 10 -25 -16 -10 -1 -25 26 -25 35 0 53 42 33 78 -65 118 -233 -8 -172 -128
27 -53 75 -80 142 -80 78 0 119 24 154 91 26 48 28 62 25 129 -3 49 -13 96
-29 135 -21 53 -30 62 -71 82 -51 24 -123 92 -134 125 -14 45 -140 1 -178 -63
-46 -78 19 -183 100 -163 52 13 64 99 13 99 -30 0 -32 29 -2 33 26 4 53 -31
53 -69 0 -14 -9 -38 -21 -53 -16 -21 -29 -26 -63 -26 -67 0 -116 50 -116 120
0 69 73 143 153 155 l42 6 -3 69 c-4 80 12 125 77 210 22 30 41 62 41 72 0 31
23 68 42 68 36 0 21 -48 -35 -111 -104 -114 -134 -203 -102 -299 46 -139 190
-210 325 -162 38 14 60 17 72 11 14 -8 20 -6 25 8 3 10 12 33 19 52 18 43 18
44 -7 30 -37 -20 -124 -6 -171 27 -59 41 -83 86 -82 154 0 68 20 108 84 168
l48 45 -40 20 c-108 54 -103 194 8 247 57 28 103 21 138 -21 33 -39 34 -82 1
-114 -43 -44 -115 -22 -115 35 0 29 28 49 50 35 15 -10 12 -35 -5 -35 -8 0
-15 5 -15 11 0 5 -4 7 -10 4 -25 -15 8 -55 45 -55 51 0 73 65 37 110 -25 31
-88 37 -129 11 -72 -45 -90 -127 -39 -180 58 -61 147 -66 299 -16 98 32 94 25
73 137 -23 119 -52 182 -113 249 -121 130 -247 161 -317 78 -75 -89 33 -239
141 -194 39 16 57 53 43 89 -11 29 -42 48 -64 40 -18 -7 -22 -24 -6 -24 6 0
10 -7 10 -16 0 -21 -34 -14 -38 9 -9 46 61 64 98 25 30 -33 26 -83 -9 -119
-94 -93 -264 51 -206 175 38 80 144 101 243 47 l52 -29 -18 26 c-31 46 -42 81
-42 134 0 63 27 109 76 133 122 58 267 -113 175 -206 -47 -46 -121 -37 -142
18 -7 19 -6 32 6 50 19 28 58 28 63 1 4 -21 -24 -25 -31 -5 -3 9 -8 9 -17 1
-17 -17 -9 -44 21 -67 37 -27 78 -13 102 35 17 34 17 38 1 77 -20 51 -62 82
-118 88 -35 4 -47 1 -74 -22 -47 -39 -58 -88 -38 -159 13 -45 30 -71 83 -127
92 -97 175 -135 334 -154 l55 -7 28 89 c54 169 44 259 -34 311 -47 31 -92 24
-138 -21 -66 -67 -47 -177 30 -177 61 0 89 58 48 95 -16 14 -23 16 -32 7 -9
-9 -9 -12 0 -12 7 0 12 -7 12 -15 0 -8 -9 -15 -21 -15 -16 0 -20 5 -17 28 2
22 8 28 35 30 59 6 84 -68 38 -113 -40 -41 -107 -29 -138 25 -69 117 99 261
203 174 17 -15 39 -42 49 -61 l17 -35 28 37 c38 49 108 93 162 101 64 9 145
-32 180 -92 31 -52 41 -111 26 -153 -6 -17 -9 -31 -8 -31 2 0 19 6 37 14 19 7
42 16 52 19 14 5 15 10 6 24 -8 14 -6 30 10 71 25 63 26 91 5 161 -11 39 -29
67 -64 102 -108 108 -252 98 -390 -28 -66 -60 -98 -79 -112 -65 -22 22 -3 47
45 59 27 6 64 26 84 44 63 55 133 81 210 78 l66 -2 12 47 c29 115 134 178 215
130z m293 -33 c11 -4 -4 -7 -36 -7 -35 0 -64 -6 -82 -18 -15 -10 -24 -13 -20
-6 18 30 97 48 138 31z m370 -4 c18 -8 39 -22 47 -33 14 -19 14 -19 -7 0 -13
10 -46 25 -75 32 -37 8 -44 13 -25 13 15 1 42 -5 60 -12z m-886 -222 c28 -15
64 -43 79 -63 l28 -37 -39 34 c-56 49 -111 71 -177 71 -62 0 -94 -11 -148 -49
l-35 -25 24 27 c63 70 176 87 268 42z m1498 6 c22 -10 51 -31 65 -47 l25 -29
-25 22 c-91 79 -235 68 -334 -25 l-39 -37 22 32 c61 90 191 128 286 84z
m-1077 -96 c53 0 94 26 112 70 7 16 9 17 9 3 1 -26 -46 -76 -84 -88 -48 -16
-97 1 -135 48 -43 53 -37 59 9 9 36 -38 44 -42 89 -42z m408 10 c55 -26 91
-18 148 34 l29 26 -18 -28 c-27 -43 -70 -61 -137 -58 -30 1 -88 54 -88 79 0
12 6 9 18 -10 9 -16 31 -35 48 -43z m210 28 c-9 -27 -66 -80 -96 -87 -18 -5
-14 -1 12 14 37 20 78 68 78 91 0 7 3 10 6 6 3 -3 3 -14 0 -24z m-1059 -4 c38
-18 123 -100 123 -118 0 -4 -24 16 -54 45 -87 85 -186 100 -285 44 l-36 -20
29 24 c58 49 152 59 223 25z m350 -56 c15 -11 35 -23 43 -26 13 -5 13 -6 0 -6
-26 -1 -78 37 -95 68 -21 42 -19 52 4 15 10 -17 32 -40 48 -51z m1168 58 c22
-10 49 -26 60 -35 11 -9 -4 -4 -32 10 -67 34 -141 36 -198 7 -43 -22 -125
-104 -125 -124 0 -7 -3 -10 -6 -7 -9 9 22 63 57 97 70 70 163 90 244 52z
m-1251 -26 l17 -30 -20 24 c-12 13 -21 28 -21 34 0 12 0 11 24 -28z m816 -9
c0 -2 -8 -10 -17 -17 -16 -13 -17 -12 -4 4 13 16 21 21 21 13z m-1740 -366
c25 -13 67 -31 95 -41 50 -19 50 -19 10 -13 -62 9 -135 46 -190 98 l-50 48 45
-35 c25 -19 65 -45 90 -57z m2765 66 c-31 -46 -177 -126 -230 -125 -11 0 8 10
41 23 76 28 141 66 173 100 31 32 36 33 16 2z m-115 8 c0 -6 -65 -34 -77 -33
-4 0 10 9 32 19 48 22 45 21 45 14z m30 -24 c-26 -21 -110 -55 -157 -65 -15
-3 4 7 42 23 39 15 84 36 100 45 40 22 45 21 15 -3z m-2590 -42 c43 -16 60
-26 40 -22 -38 6 -160 59 -160 69 0 3 10 0 22 -6 12 -7 56 -25 98 -41z m0 37
c19 -7 28 -14 20 -14 -8 0 -28 6 -45 14 -39 17 -21 18 25 0z m2467 -11 c-3 -3
-12 -4 -19 -1 -8 3 -5 6 6 6 11 1 17 -2 13 -5z m-2400 -10 c-3 -3 -12 -4 -19
-1 -8 3 -5 6 6 6 11 1 17 -2 13 -5z m2681 -31 c-43 -47 -70 -92 -100 -167 -19
-46 -27 -59 -23 -37 9 56 50 136 95 185 24 25 45 46 48 46 3 0 -6 -12 -20 -27z
m-2926 -114 c14 -30 29 -72 32 -94 6 -39 6 -39 -13 11 -25 67 -47 109 -88 169
l-34 50 38 -41 c21 -23 50 -66 65 -95z m-42 -24 c16 -33 31 -76 34 -95 4 -19
-9 4 -28 52 -19 48 -42 100 -51 115 -16 27 -16 27 0 8 10 -11 30 -47 45 -80z
m2949 43 c-12 -23 -32 -69 -45 -102 -26 -69 -32 -61 -8 11 16 48 60 133 70
133 2 0 -5 -19 -17 -42z m-2960 -118 c0 -8 -7 1 -14 20 -18 46 -17 64 0 25 8
-16 14 -37 14 -45z m2962 43 c-12 -20 -14 -14 -5 12 4 9 9 14 11 11 3 -2 0
-13 -6 -23z m-17 -57 c-3 -15 -8 -25 -11 -23 -2 3 -1 17 3 31 3 15 8 25 11 23
2 -3 1 -17 -3 -31z m-2937 -28 c-3 -8 -6 -5 -6 6 -1 11 2 17 5 13 3 -3 4 -12
1 -19z m3356 -318 c33 -64 35 -126 6 -190 -20 -46 -69 -104 -102 -122 -10 -5
-1 8 20 29 97 97 109 238 30 331 -28 32 -29 35 -7 21 14 -9 37 -40 53 -69z
m-3764 14 c-55 -105 -30 -228 62 -309 48 -42 35 -38 -23 7 -72 56 -109 182
-77 265 10 27 56 93 64 93 2 0 -9 -25 -26 -56z m79 39 c-25 -28 -38 -59 -47
-109 -14 -72 9 -134 73 -200 29 -30 49 -54 45 -54 -16 0 -102 86 -119 121 -22
42 -26 121 -9 166 11 30 56 93 66 93 3 0 -1 -8 -9 -17z m3642 -91 c5 -20 10
-50 10 -67 -1 -61 -64 -161 -120 -190 -23 -12 -19 -5 20 35 62 63 85 122 77
196 -3 30 -13 68 -22 82 l-16 27 20 -23 c11 -13 25 -40 31 -60z m-3663 -452
c34 -20 68 -73 59 -93 -2 -7 -5 -5 -5 4 -1 23 -39 68 -75 90 -17 10 -26 19
-21 19 6 0 24 -9 42 -20z m3642 -3 c-18 -12 -44 -38 -56 -56 -26 -39 -30 -34
-8 10 9 16 30 39 48 49 44 28 57 25 16 -3z m-3659 -45 c37 -36 40 -43 40 -91
0 -47 -4 -57 -34 -87 -19 -19 -42 -34 -52 -33 -15 0 -15 2 -4 6 31 11 70 58
76 90 8 43 -10 86 -53 123 -18 17 -29 30 -24 30 6 0 28 -17 51 -38z m3687 17
c-77 -58 -74 -179 6 -214 18 -8 26 -14 19 -15 -26 0 -72 31 -87 60 -19 37 -19
73 0 109 14 28 70 81 83 81 4 0 -6 -10 -21 -21z m-4024 -41 c-42 -45 -55 -73
-63 -138 l-7 -55 -2 48 c-1 59 19 110 60 148 42 39 50 37 12 -3z m4388 -60
c11 -21 19 -55 18 -80 l-1 -43 -9 55 c-10 57 -24 85 -68 135 l-26 30 33 -30
c19 -16 42 -47 53 -67z m-4347 50 c-4 -7 -13 -20 -19 -28 -7 -8 -20 -37 -29
-65 -15 -48 -15 -48 -10 -10 5 36 46 115 60 115 3 0 2 -6 -2 -12z m4285 -31
c21 -36 37 -92 23 -83 -5 3 -12 19 -15 34 -3 16 -18 43 -32 61 -17 19 -21 29
-11 25 9 -3 24 -20 35 -37z m-38 -40 c14 -53 5 -58 -10 -5 -7 24 -20 52 -29
63 -17 20 -17 20 6 1 12 -11 27 -37 33 -59z m-4216 39 c-9 -13 -20 -43 -25
-67 l-9 -44 3 43 c4 38 28 92 41 92 3 0 -2 -11 -10 -24z m4205 -143 c-11 -17
-11 -17 -6 0 3 10 7 26 7 35 1 15 2 15 6 0 2 -10 -1 -25 -7 -35z m60 -10 c-11
-17 -11 -17 -6 0 3 10 7 26 7 35 1 15 2 15 6 0 2 -10 -1 -25 -7 -35z m-4343
15 c-3 -8 -6 -5 -6 6 -1 11 2 17 5 13 3 -3 4 -12 1 -19z m3 -234 c-17 -44 -3
-110 32 -150 18 -20 23 -32 14 -28 -26 10 -66 87 -66 127 0 34 19 92 27 83 2
-2 -1 -16 -7 -32z m-41 -124 c8 -14 25 -38 40 -55 l26 -30 -34 30 c-44 39 -61
82 -60 147 l2 53 7 -60 c3 -33 12 -71 19 -85z m99 109 c-14 -40 -4 -96 24
-134 17 -23 18 -27 3 -15 -38 31 -55 103 -35 154 14 37 21 32 8 -5z m4231 -7
c12 -45 0 -99 -29 -134 -19 -22 -19 -21 0 14 23 40 29 87 17 131 -4 15 -5 27
-3 27 3 0 10 -17 15 -38z m-3941 -1 c59 -59 47 -150 -26 -197 l-27 -17 26 29
c35 38 49 67 49 99 0 37 -26 82 -58 99 -18 10 -21 15 -10 16 9 0 30 -13 46
-29z m3680 13 c-35 -18 -58 -62 -58 -108 0 -27 9 -46 38 -78 25 -28 30 -38 15
-30 -54 29 -82 98 -63 157 12 37 52 75 79 75 10 -1 6 -6 -11 -16z m312 -104
c-6 -15 -25 -41 -42 -56 l-31 -29 33 43 c26 33 35 55 39 100 6 56 6 56 9 13 2
-24 -2 -56 -8 -71z m56 5 c-9 -23 -31 -55 -49 -71 -24 -22 -27 -23 -10 -4 31
35 62 109 64 150 l2 35 4 -34 c3 -19 -3 -53 -11 -76z m-3980 -63 c-9 -29 -44
-70 -69 -84 -12 -6 -6 4 15 23 20 19 40 47 44 63 3 15 9 25 11 22 3 -2 2 -13
-1 -24z m3563 -65 c18 -15 37 -27 43 -27 6 0 9 -3 5 -6 -3 -4 -22 4 -42 16
-34 21 -65 65 -65 92 1 7 7 -1 14 -17 7 -17 28 -43 45 -58z m-3589 -31 c0 -2
-8 -10 -17 -17 -16 -13 -17 -12 -4 4 13 16 21 21 21 13z m-42 -193 c-96 -98
-104 -247 -20 -337 24 -25 24 -27 4 -15 -71 43 -102 163 -67 256 16 41 93 133
112 133 4 0 -9 -17 -29 -37z m107 19 c-40 -25 -94 -88 -112 -131 -20 -48 -18
-126 5 -173 11 -20 15 -35 10 -31 -21 12 -48 90 -48 136 0 28 8 63 19 85 28
54 113 131 146 132 6 0 -4 -8 -20 -18z m3444 4 c37 -19 99 -90 117 -132 26
-63 12 -153 -32 -201 l-25 -28 21 31 c33 48 39 148 12 201 -27 53 -69 101
-107 124 -35 22 -26 25 14 5z m154 -78 c55 -89 45 -200 -25 -272 l-40 -41 30
40 c40 54 56 107 49 170 -6 62 -25 101 -75 158 l-37 42 35 -26 c19 -14 47 -46
63 -71z m-3346 -550 c-3 -8 -6 -5 -6 6 -1 11 2 17 5 13 3 -3 4 -12 1 -19z
m2840 0 c-3 -8 -6 -5 -6 6 -1 11 2 17 5 13 3 -3 4 -12 1 -19z m-2802 -20 c-9
-41 -57 -146 -79 -173 -9 -11 -3 7 13 40 16 33 37 84 47 113 21 59 29 68 19
20z m36 -34 c-22 -85 -78 -177 -129 -210 -19 -13 -13 -3 20 34 44 50 108 178
108 218 0 10 3 15 6 11 4 -3 1 -27 -5 -53z m2858 -51 c16 -40 27 -73 25 -73
-8 0 -63 123 -69 155 -7 37 1 23 44 -82z m-2 85 c-3 -8 -6 -5 -6 6 -1 11 2 17
5 13 3 -3 4 -12 1 -19z m-2952 -57 c-9 -28 -20 -53 -24 -55 -4 -3 2 21 13 54
11 32 22 57 24 55 2 -2 -4 -26 -13 -54z m2931 -88 c10 -15 31 -46 47 -68 l29
-40 -41 44 c-45 48 -88 128 -96 181 -4 26 0 19 19 -27 13 -34 32 -74 42 -90z
m43 82 c0 -5 -4 -3 -9 5 -5 8 -9 22 -9 30 0 16 17 -16 18 -35z m-2652 -111
c-3 -3 -12 -4 -19 -1 -8 3 -5 6 6 6 11 1 17 -2 13 -5z m2350 0 c-3 -3 -12 -4
-19 -1 -8 3 -5 6 6 6 11 1 17 -2 13 -5z m-2443 -28 c-68 -25 -121 -56 -173
-100 l-36 -30 30 33 c17 18 43 42 59 54 37 26 135 67 161 66 11 0 -7 -10 -41
-23z m2581 -15 c33 -17 76 -46 95 -67 l35 -36 -55 41 c-30 23 -89 55 -130 72
-50 20 -63 28 -40 24 19 -3 62 -18 95 -34z m-2570 -30 c-38 -15 -85 -35 -102
-45 -18 -9 -33 -15 -33 -12 0 8 76 49 125 67 79 28 87 21 10 -10z m2543 -11
c34 -16 62 -32 62 -35 0 -3 -10 0 -22 6 -13 7 -54 25 -93 41 -38 16 -56 26
-40 23 17 -3 58 -19 93 -35z m-2517 -16 c-25 -8 -47 -12 -49 -9 -5 5 56 23 78
23 8 0 -5 -6 -29 -14z m2489 -10 c35 -18 24 -17 -40 6 -38 14 -44 18 -20 14
19 -4 46 -12 60 -20z m-648 -297 c24 -20 56 -41 71 -46 49 -19 120 -13 173 14
l49 24 -28 -24 c-49 -43 -139 -57 -201 -31 -42 18 -113 80 -132 117 -20 40
-17 49 5 13 10 -17 39 -47 63 -67z m-1186 44 c-19 -37 -80 -90 -125 -108 -49
-21 -130 -11 -186 22 -59 34 -58 41 1 10 95 -50 219 -20 291 70 34 42 38 44
19 6z m269 -23 c-38 -20 -68 -53 -86 -93 -10 -22 -19 -34 -19 -27 -1 44 77
133 115 132 6 0 1 -6 -10 -12z m615 -3 c29 -15 77 -81 66 -92 -3 -4 -6 -1 -6
5 0 19 -53 74 -85 88 -16 7 -24 13 -17 14 7 0 26 -7 42 -15z m-869 -32 c-17
-33 -76 -82 -121 -102 -78 -36 -169 -22 -224 32 -18 18 -23 24 -11 15 37 -31
112 -51 166 -45 59 7 144 51 172 89 23 32 32 37 18 11z m375 1 c33 -16 64 -58
64 -86 0 -7 -7 1 -16 18 -31 63 -116 84 -170 42 -16 -13 -37 -32 -47 -43 -18
-20 -18 -20 -8 0 5 11 20 30 33 41 52 48 88 54 144 28z m464 -6 c18 -13 40
-34 49 -48 12 -19 6 -17 -27 13 -31 27 -51 37 -76 37 -52 0 -84 -16 -106 -52
-11 -18 -20 -27 -20 -20 0 42 63 92 116 92 17 0 46 -10 64 -22z m388 -82 c84
-29 159 -17 226 35 l41 32 -34 -36 c-19 -20 -54 -44 -78 -53 -87 -33 -212 4
-265 79 l-23 32 44 -37 c24 -20 64 -44 89 -52z m-901 -222 c32 -11 34 -13 13
-14 -14 0 -36 10 -50 23 -14 12 -20 18 -13 13 7 -4 30 -14 50 -22z m508 26
c-11 -18 -66 -41 -88 -37 -20 4 -20 4 3 6 14 0 39 10 55 20 36 23 38 24 30 11z
m-490 -86 c20 -3 55 -4 78 -1 27 4 36 2 26 -4 -7 -5 -40 -9 -72 -9 -54 0 -60
2 -100 41 -38 38 -39 39 -5 11 21 -17 54 -34 73 -38z m95 56 c-8 -5 -28 -9
-45 -9 -30 2 -30 2 5 9 51 11 57 11 40 0z m279 -6 c10 -9 -45 -3 -59 6 -11 7
-5 8 20 4 19 -4 37 -8 39 -10z m106 -24 c-16 -17 -46 -35 -67 -41 -38 -10
-104 -4 -113 11 -3 4 12 4 33 -1 47 -10 103 4 139 36 39 34 43 31 8 -5z m-525
-63 c14 -9 50 -21 80 -26 52 -8 52 -9 15 -10 -51 -1 -112 27 -150 70 l-30 34
30 -26 c17 -15 41 -34 55 -42z m549 27 c-34 -38 -97 -64 -149 -63 l-45 1 51 8
c58 9 115 33 140 61 9 10 19 19 22 19 3 0 -5 -12 -19 -26z"/>
<path d="M1460 4328 c-16 -7 -20 -12 -12 -15 8 -3 21 2 30 11 19 18 17 19 -18
4z"/>
<path d="M3513 4327 c5 -15 37 -22 37 -9 0 5 -9 12 -21 15 -13 3 -19 1 -16 -6z"/>
<path d="M1642 4239 c-23 -12 -62 -44 -87 -71 -36 -40 -45 -57 -45 -87 0 -55
-34 -173 -84 -296 -25 -60 -44 -110 -43 -112 2 -1 38 27 80 62 82 68 164 126
234 165 l43 24 -38 20 c-20 12 -45 37 -55 56 -19 39 -38 41 -74 7 -41 -37 -21
-117 30 -117 23 0 29 16 12 30 -17 14 -11 30 10 30 23 0 29 -39 9 -61 -22 -24
-45 -24 -75 0 -19 15 -24 29 -24 66 0 40 4 50 30 71 17 13 38 24 48 24 10 0
22 12 28 27 6 16 18 36 26 45 20 23 86 24 107 2 24 -24 20 -71 -8 -89 -28 -18
-56 -10 -56 16 0 21 25 26 34 7 3 -9 9 -7 20 6 14 17 14 23 2 40 -31 48 -116
12 -116 -48 0 -84 78 -128 164 -92 93 39 104 169 20 248 -56 52 -122 61 -192
27z"/>
<path d="M3202 4239 c-47 -23 -86 -80 -97 -139 -8 -48 20 -99 70 -127 60 -34
100 -30 142 12 32 32 35 40 30 73 -11 68 -81 96 -113 46 -16 -24 -16 -26 1
-42 13 -13 19 -14 22 -4 7 19 33 14 33 -7 0 -47 -73 -24 -78 24 -4 43 19 69
61 69 41 0 65 -17 83 -60 9 -22 22 -33 44 -37 31 -7 70 -56 70 -90 0 -62 -66
-106 -103 -69 -21 22 -16 62 8 62 21 0 27 -16 10 -30 -18 -15 -11 -30 14 -30
49 0 68 80 29 117 -37 34 -56 32 -75 -7 -10 -19 -35 -44 -55 -55 l-37 -21 75
-44 c41 -24 111 -73 156 -109 44 -36 92 -74 105 -85 l24 -19 -16 39 c-77 179
-115 302 -115 370 0 37 -6 48 -53 96 -88 89 -152 108 -235 67z"/>
<path d="M2010 4106 c-13 -41 -9 -52 15 -43 16 7 20 44 6 66 -6 10 -12 3 -21
-23z"/>
<path d="M2967 4134 c-11 -11 -8 -62 4 -70 6 -3 14 -2 19 2 9 11 -13 78 -23
68z"/>
<path d="M2286 4069 c-600 -88 -1096 -499 -1286 -1066 -52 -158 -71 -263 -77
-443 -6 -184 4 -288 43 -445 73 -289 207 -522 428 -740 221 -220 480 -358 801
-427 83 -18 134 -22 300 -22 226 -1 329 15 519 81 541 187 936 648 1042 1218
26 139 26 411 0 550 -60 324 -205 603 -431 831 -121 122 -214 195 -350 273
-158 91 -373 162 -570 191 -83 11 -336 11 -419 -1z m661 -678 c79 -20 223 -83
223 -99 0 -4 9 -90 20 -191 10 -102 16 -189 14 -193 -12 -19 -26 0 -57 77 -99
246 -233 354 -477 387 -169 22 -374 -19 -516 -103 -125 -74 -244 -212 -306
-354 -53 -121 -63 -176 -63 -365 0 -188 14 -271 71 -410 100 -246 303 -431
551 -502 65 -19 103 -22 233 -23 182 0 247 15 306 73 62 61 77 108 82 261 8
262 -28 310 -238 311 -83 0 -106 9 -96 35 6 16 16 17 89 12 45 -4 193 -7 330
-7 204 0 247 -2 247 -14 0 -16 -21 -26 -59 -26 -80 0 -95 -59 -88 -345 3 -116
7 -221 9 -235 4 -32 -21 -40 -223 -75 -190 -33 -471 -44 -612 -25 -394 53
-698 310 -799 675 -19 68 -22 106 -23 255 0 164 2 181 27 261 108 339 391 561
808 635 117 21 441 12 547 -15z"/>
<path d="M1115 3866 c26 -44 65 -179 65 -225 0 -53 12 -57 82 -28 87 38 83 34
122 120 35 76 35 77 13 81 -146 25 -201 40 -249 65 l-58 30 25 -43z"/>
<path d="M3848 3879 c-31 -16 -92 -37 -135 -45 -43 -9 -90 -19 -105 -22 l-27
-7 33 -77 c19 -42 33 -78 32 -80 0 -2 1 -2 2 -1 2 1 39 -14 82 -32 l79 -34 6
47 c14 96 36 177 64 229 16 29 28 53 28 52 -1 0 -28 -14 -59 -30z"/>
<path d="M1260 3594 c-103 -47 -255 -95 -320 -101 -63 -6 -67 -8 -121 -62 -64
-65 -84 -112 -74 -177 7 -52 53 -110 102 -130 43 -19 113 -18 141 2 28 19 62
85 62 119 0 84 -91 134 -154 84 -28 -22 -35 -66 -14 -87 17 -17 53 -15 68 3
10 12 10 15 -4 15 -9 0 -16 7 -16 15 0 8 9 15 20 15 16 0 20 -7 20 -30 0 -31
-22 -50 -59 -50 -29 0 -64 48 -56 80 8 33 41 67 71 74 16 4 24 14 24 27 0 32
53 79 90 79 57 0 98 -39 85 -80 -9 -29 -42 -45 -61 -29 -18 15 -18 39 1 39 8
0 15 -7 15 -16 0 -22 24 -12 28 12 4 26 -30 57 -63 57 -29 0 -70 -34 -78 -64
-4 -14 4 -23 31 -36 21 -10 46 -34 57 -55 l21 -37 29 52 c38 69 85 135 162
230 35 42 60 77 56 76 -4 0 -33 -11 -63 -25z"/>
<path d="M3702 3572 c58 -62 129 -158 181 -245 l40 -69 12 30 c14 31 59 72 81
72 22 0 16 39 -11 65 -39 40 -115 28 -115 -19 0 -31 11 -39 26 -18 10 13 15
14 25 5 10 -10 9 -15 -1 -28 -16 -19 -34 -19 -54 1 -24 23 -19 60 10 83 51 40
113 21 145 -46 11 -23 27 -43 35 -43 8 0 26 -11 39 -25 47 -47 24 -125 -37
-125 -30 0 -61 31 -56 57 4 20 39 25 46 6 2 -7 -3 -13 -12 -13 -22 0 -20 -17
4 -30 42 -22 80 24 60 74 -12 32 -53 50 -96 41 -38 -7 -61 -31 -74 -75 -13
-44 21 -125 61 -145 57 -30 155 -10 201 42 31 34 50 93 43 134 -14 83 -114
189 -178 189 -52 0 -170 34 -295 84 -63 25 -116 46 -119 46 -3 0 15 -22 39
-48z"/>
<path d="M666 3534 c-9 -24 -7 -28 9 -14 17 14 20 30 6 30 -5 0 -12 -7 -15
-16z"/>
<path d="M4310 3529 c7 -11 14 -18 17 -15 8 8 -5 36 -17 36 -7 0 -7 -6 0 -21z"/>
<path d="M885 2986 l-30 -13 27 -8 c34 -9 58 -1 58 20 0 18 -15 18 -55 1z"/>
<path d="M4056 2991 c-11 -18 23 -33 56 -25 l33 7 -30 13 c-36 16 -52 17 -59
5z"/>
<path d="M870 2031 c0 -13 58 -32 65 -20 4 5 3 14 0 19 -8 12 -65 13 -65 1z"/>
<path d="M4057 2026 c-3 -8 -1 -17 6 -19 16 -5 67 13 67 24 0 15 -67 10 -73
-5z"/>
<path d="M866 1886 c-73 -27 -126 -98 -126 -168 0 -46 49 -127 103 -171 35
-29 54 -37 84 -37 67 0 147 -25 403 -128 8 -3 -11 23 -43 58 -59 66 -160 208
-192 269 l-18 35 -18 -37 c-12 -23 -34 -44 -59 -57 l-40 -21 15 -30 c9 -16 27
-35 41 -41 45 -21 106 17 91 56 -5 14 -10 14 -26 4 -23 -14 -36 -6 -28 17 9
22 54 19 67 -6 17 -31 4 -67 -32 -85 -26 -14 -38 -14 -70 -4 -33 9 -43 19 -59
55 -13 29 -27 45 -44 49 -35 9 -57 47 -53 93 5 66 77 81 109 22 14 -27 -13
-61 -33 -41 -9 9 -9 15 0 24 17 17 15 26 -9 33 -13 4 -27 0 -40 -11 -50 -45 9
-125 81 -109 41 9 80 58 80 101 0 41 -30 104 -58 121 -33 20 -85 23 -126 9z"/>
<path d="M4022 1885 c-40 -17 -84 -104 -75 -147 7 -35 44 -75 77 -84 77 -19
141 81 75 116 -13 8 -25 7 -39 0 -24 -13 -26 -30 -4 -30 9 0 14 -6 12 -12 -7
-20 -42 -15 -46 5 -5 26 26 57 58 57 59 0 82 -79 35 -125 -13 -14 -31 -25 -39
-25 -9 0 -22 -15 -30 -33 -30 -73 -105 -99 -151 -52 -29 28 -32 57 -9 79 20
20 38 20 54 1 10 -13 11 -18 1 -28 -10 -9 -15 -8 -25 5 -7 10 -16 15 -19 11
-13 -12 -7 -40 11 -56 27 -24 69 -21 97 8 27 26 33 65 11 65 -22 0 -67 41 -81
72 l-12 30 -42 -71 c-49 -83 -127 -188 -185 -250 -22 -24 -34 -41 -26 -38 8 3
67 26 130 52 126 51 213 75 275 75 35 0 46 7 100 63 72 73 92 124 75 187 -16
60 -63 107 -123 125 -61 18 -63 18 -105 0z"/>
<path d="M667 1471 c3 -12 10 -21 15 -21 13 0 6 32 -9 37 -7 3 -9 -3 -6 -16z"/>
<path d="M4317 1484 c-4 -4 -7 -14 -7 -23 0 -11 3 -12 11 -4 6 6 10 16 7 23
-2 6 -7 8 -11 4z"/>
<path d="M1186 1398 c-25 -145 -39 -196 -64 -246 l-30 -59 51 28 c47 26 117
45 233 67 l41 7 -35 81 c-32 74 -38 82 -76 96 -23 9 -58 23 -78 32 -37 16 -38
16 -42 -6z"/>
<path d="M3728 1386 c-42 -18 -80 -31 -83 -28 -3 3 -5 -2 -5 -10 0 -9 -14 -46
-30 -84 -17 -37 -29 -68 -28 -70 2 -1 46 -9 98 -18 62 -11 118 -28 160 -49
l66 -32 -29 53 c-19 34 -37 94 -51 163 l-21 108 -77 -33z"/>
<path d="M3555 1284 c-33 -30 -113 -89 -177 -131 l-118 -77 38 -20 c20 -12 44
-36 52 -53 18 -39 42 -42 75 -8 29 28 32 61 9 93 -15 22 -64 31 -64 12 0 -5 5
-10 10 -10 6 0 10 -9 10 -20 0 -24 -13 -26 -30 -5 -27 33 8 73 53 61 34 -8 60
-57 52 -96 -7 -33 -57 -80 -85 -80 -11 0 -20 -10 -24 -25 -13 -50 -83 -83
-122 -57 -23 15 -34 50 -24 76 15 39 80 48 80 11 0 -22 -22 -29 -35 -11 -11
14 -14 14 -25 2 -17 -22 -9 -48 21 -65 24 -13 29 -13 53 3 54 35 58 96 10 141
-34 32 -70 36 -123 15 -61 -24 -85 -57 -84 -118 1 -83 52 -149 133 -173 62
-19 111 1 187 74 58 55 63 64 63 102 0 61 32 174 84 299 25 61 44 111 43 112
-1 1 -29 -22 -62 -52z"/>
<path d="M1382 1320 c95 -226 128 -328 128 -400 0 -31 8 -47 48 -88 48 -52
118 -92 162 -92 42 0 106 36 136 75 39 52 46 137 13 179 -27 34 -75 56 -124
56 -81 0 -126 -100 -70 -155 26 -27 46 -31 76 -15 23 13 25 52 4 70 -12 10
-15 10 -15 -4 0 -9 -7 -16 -15 -16 -20 0 -20 39 0 46 26 10 65 -23 65 -55 0
-80 -116 -82 -149 -2 -8 17 -23 32 -38 36 -40 10 -73 50 -73 88 0 68 65 111
103 69 21 -23 21 -36 2 -52 -13 -10 -18 -11 -28 -1 -9 10 -8 15 5 25 21 15 13
26 -18 26 -49 0 -61 -85 -18 -119 34 -27 52 -26 63 2 11 28 49 63 79 74 22 8
17 13 -55 55 -44 25 -115 75 -158 110 -123 100 -130 104 -123 88z"/>
<path d="M2005 938 c-3 -8 0 -31 8 -49 l14 -34 7 34 c6 25 4 37 -8 49 -14 14
-16 14 -21 0z"/>
<path d="M2973 943 c-15 -5 -18 -73 -4 -73 12 0 31 55 22 67 -3 6 -12 8 -18 6z"/>
<path d="M1450 690 c0 -12 28 -25 36 -17 3 3 -4 10 -15 17 -15 7 -21 7 -21 0z"/>
<path d="M3515 680 c-3 -5 1 -10 9 -10 8 0 18 5 21 10 3 6 -1 10 -9 10 -8 0
-18 -4 -21 -10z"/>
</g>
</svg>
